<?xml version="1.0" encoding="utf-8"?>
<!-- Generator: Adobe Illustrator 15.1.0, SVG Export Plug-In . SVG Version: 6.00 Build 0)  -->
<!DOCTYPE svg PUBLIC "-//W3C//DTD SVG 1.1//EN" "http://www.w3.org/Graphics/SVG/1.1/DTD/svg11.dtd">
<svg version="1.1" id="Layer_1" xmlns="http://www.w3.org/2000/svg" xmlns:xlink="http://www.w3.org/1999/xlink" x="0px" y="0px"
	 width="432.019px" height="213.589px" viewBox="68.436 146.244 432.019 213.589"
	 enable-background="new 68.436 146.244 432.019 213.589" xml:space="preserve">
<g>
	<g>
		<g>
			<path d="M89.335,212.986c-2.278,0-2.188,0-2.986,2.397l-3.613,10.526c-1.756,5.196-1.402,5.455,1.862,5.9l2.548,0.441
				c0.605,0.621,0.514,2.201-0.175,2.536c-2.833-0.184-5.706-0.184-9.33-0.27c-2.876,0-5.621,0.085-8.711,0.27
				c-0.596-0.414-0.687-1.766-0.081-2.536l2.631-0.441c2.547-0.355,3.525-1.139,4.835-4.045c1.051-2.295,2.466-5.985,4.322-10.714
				l12.029-31.318c1.15-2.805,1.944-4.927,1.698-6.403c3.044-0.608,5.966-4.218,6.145-4.218c0.697,0,1.145,0.248,1.504,0.688
				c1.39,3.953,2.531,8.095,3.956,12.043l12.649,36.838c2.01,5.889,2.465,6.522,6.938,7.314l1.316,0.257
				c0.716,0.621,0.716,2.122,0.083,2.536c-3.592-0.184-6.847-0.27-11.425-0.27c-3.788,0-7.648,0.174-10.715,0.27
				c-0.726-0.414-0.808-2.029-0.271-2.536l1.94-0.257c3.153-0.354,3.432-0.889,2.284-4.684l-4.129-11.927
				c-0.885-2.397-1.146-2.397-3.606-2.397H89.335z M99.885,209.047c2.457,0,2.811-0.18,2.128-2.307l-3.707-10.554
				c-1.512-4.642-2.039-6.318-2.484-6.933h-0.14c-0.368,0.615-1.073,2.818-2.667,6.933l-3.682,10.312
				c-0.963,2.549-0.707,2.549,1.411,2.549H99.885z"/>
			<path d="M139.789,199.88c0,1.237,0.188,1.602,0.707,1.602c2.811-1.687,5.72-2.814,9.246-2.814
				c10.271,0,16.781,7.652,16.781,17.385c0,12.513-9.323,19.697-20.852,19.697c-6.485,0-10.618-2.373-11.655-2.373
				c-1.083,0-1.69,0.821-2.23,1.411c-0.179,0.089-0.35,0.089-0.6,0.089c-0.361,0-0.897-0.358-0.897-0.615
				c0-0.347,0.281-5.019,0.281-8.266v-39.637c0-5.89-0.097-6.521-2.009-7.638l-1.252-0.818c-0.527-0.336-0.621-1.75,0-1.996
				c3.344-0.984,7.92-2.838,11.527-4.245c0.521-0.093,1.047,0.286,1.235,0.717c-0.188,3.528-0.281,8.967-0.281,12.741V199.88z
				 M139.789,220.46c0,3.871,0.539,6.933,1.922,8.782c1.239,1.669,3.363,3.009,5.899,3.009c5.884,0,9.135-5.559,9.135-13.015
				c0-10.287-5.425-15.825-11.671-15.825c-1.768,0-3.623,0.615-4.328,1.136c-0.77,0.526-0.958,1.68-0.958,4.654V220.46z"/>
			<path d="M181.995,213.689c-1.668,0-1.851,0.091-1.851,1.161c0,7.908,5.444,14.246,13.269,14.246c3.523,0,6.418-1.166,8.466-4.416
				c0.859-0.266,1.825,0.623,1.898,1.414c-2.972,7.004-9.457,9.655-14.853,9.655c-10.193,0-16.958-7.553-16.958-17.566
				c0-9.918,6.765-19.516,18.549-19.516c6.503,0,13.188,4.218,13.188,11.861c0,0.79-0.09,1.327-0.464,2.014
				c-0.502,0.799-2.534,1.147-6.045,1.147H181.995z M190.063,210.181c2.561,0,3.704-0.274,4.327-0.622
				c0.501-0.357,0.855-1.04,0.855-1.861c0-3.15-1.994-5.7-5.784-5.7c-5.899,0-8.614,5.7-8.614,7.561
				c0,0.348,0.173,0.622,1.224,0.622H190.063z"/>
			<path d="M211.248,211.168c0-3.991,0-5.054-2.193-6.372l-1.045-0.581c-0.258-0.363-0.258-1.601,0.07-2.036
				c3.799-1.233,8.449-3.173,11.076-4.753c0.546,0,1.079,0.268,1.239,0.799c-0.085,1.654-0.16,3.156-0.16,3.954
				c0,0.601,0.339,1.05,0.856,1.05c2.731-1.938,5.637-4.563,8.622-4.563c3.09,0,4.825,2.021,4.825,4.3
				c0,3.423-2.546,5.13-4.902,5.13c-0.878,0-1.671-0.284-2.382-0.737c-2.199-1.492-3.693-1.667-4.224-1.667
				c-2.006,0-2.546,2.005-2.546,6.333v12.051c0,6.493,0.352,7.471,3.435,7.814l3.435,0.36c0.612,0.621,0.521,2.201-0.192,2.536
				c-5.258-0.184-8.244-0.27-11.508-0.27c-2.892,0-5.813,0.085-9.142,0.27c-0.685-0.335-0.781-1.916-0.168-2.536l1.577-0.257
				c2.97-0.446,3.33-1.425,3.33-7.917V211.168z"/>
			<path d="M264.262,199.88c1.148,1.066,1.757,2.464,1.757,4.493c0,2.804-1.488,4.146-2.2,4.146c-0.62,0-1.051-0.189-1.665-0.987
				c-1.939-2.546-4.565-5.353-8.002-5.353c-4.981,0-10.179,4.906-10.179,13.204c0,7.077,4.563,13.859,12.546,13.859
				c5.727,0,7.743-2.097,9.5-4.663c0.799-0.067,1.756,0.542,1.847,1.618c-3.17,7.088-9.936,9.552-15.481,9.552
				c-4.654,0-9.241-1.835-12.202-4.736c-3.083-3.015-5.097-7.559-5.097-12.666c0-10.25,7.466-19.681,21.619-19.681
				C259.246,198.667,261.809,199.006,264.262,199.88z"/>
			<path d="M275.342,211.168c0-3.991,0-5.054-2.193-6.372l-1.066-0.581c-0.273-0.363-0.273-1.601,0.084-2.036
				c3.788-1.233,8.448-3.173,11.075-4.753c0.523,0,1.072,0.268,1.237,0.799c-0.087,1.654-0.166,3.156-0.166,3.954
				c0,0.601,0.34,1.05,0.872,1.05c2.714-1.938,5.623-4.563,8.595-4.563c3.107,0,4.841,2.021,4.841,4.3
				c0,3.423-2.544,5.13-4.913,5.13c-0.874,0-1.684-0.284-2.373-0.737c-2.21-1.492-3.708-1.667-4.225-1.667
				c-2.023,0-2.545,2.005-2.545,6.333v12.051c0,6.493,0.351,7.471,3.433,7.814l3.425,0.36c0.602,0.621,0.523,2.201-0.188,2.536
				c-5.283-0.184-8.25-0.27-11.518-0.27c-2.872,0-5.804,0.085-9.113,0.27c-0.726-0.335-0.801-1.916-0.192-2.536l1.604-0.257
				c2.962-0.446,3.325-1.425,3.325-7.917V211.168z"/>
			<path d="M336.952,216.748c0,12.495-8.798,19.001-19.245,19.001c-10.111,0-18.568-6.429-18.568-17.923
				c0-11.788,8.981-19.159,19.275-19.159C328.324,198.658,336.952,205.356,336.952,216.748z M318.768,232.251
				c6.053-0.011,7.804-7.229,7.804-13.992c0-7.379-2.541-16.095-9.023-16.08c-4.507,0-8.011,4.562-8.011,14.331
				C309.537,224.513,312.42,232.251,318.768,232.251z"/>
			<path d="M343.914,211.163c0-3.985,0-5.048-2.207-6.367l-1.059-0.581c-0.256-0.363-0.256-1.601,0.101-2.051
				c3.868-1.047,8.579-3.158,11.42-4.738c0.62,0,0.948,0.361,1.131,0.716c-0.183,1.646-0.183,3.339-0.183,4.021
				c0,0.616,0.271,0.803,0.822,0.888c4.287-2.288,6.614-4.394,12.555-4.394c3.748,0,6.704,2.029,7.909,3.681
				c0.521,0.807,1.052,1.346,1.412,1.346c0.354,0,0.861-0.289,1.938-0.905c4.125-2.528,7.108-4.122,11.229-4.122
				c7.385,0,10.735,4.912,10.735,11.788v13.631c0,6.487,0.33,7.469,3.349,7.914l1.935,0.25c0.786,0.627,0.328,2.212,0,2.54
				c-3.771-0.182-6.774-0.262-10.024-0.262c-2.915,0-5.912,0.08-9.049,0.262c-0.735-0.328-0.82-1.913-0.175-2.54l1.393-0.25
				c2.986-0.444,3.337-1.427,3.337-7.914v-11.963c0-4.663-1.585-8.182-7.124-8.182c-2.528,0-4.824,1.322-5.89,2.643
				c-0.873,1.049-1.06,2.101-1.06,4.588v12.914c0,6.487,0.358,7.469,3.354,7.978l1.321,0.185c0.61,0.627,0.534,2.212-0.179,2.54
				c-3.079-0.182-5.98-0.262-9.223-0.262c-2.913,0-5.882,0.08-8.785,0.262c-0.732-0.328-0.801-1.913-0.198-2.54l1.138-0.185
				c3.02-0.509,3.359-1.491,3.359-7.978v-11.963c0-4.663-1.56-8.182-6.643-8.182c-3.046,0-5.31,1.424-6.265,2.737
				c-1.069,1.417-1.172,2.187-1.172,5.612v11.796c0,6.487,0.357,7.469,3.362,7.978l1.328,0.185c0.572,0.627,0.502,2.212-0.195,2.54
				c-3.083-0.182-6.066-0.262-9.311-0.262c-2.887,0-5.83,0.08-9.156,0.262c-0.694-0.328-0.755-1.913-0.177-2.54l1.606-0.25
				c2.978-0.444,3.339-1.427,3.339-7.914V211.163z"/>
			<path d="M418.2,199.88c0,1.237,0.152,1.602,0.688,1.602c2.821-1.693,5.713-2.823,9.198-2.823
				c10.289,0,16.837,7.653,16.837,17.391c0,12.498-9.345,19.7-20.845,19.7c-6.518,0-10.647-2.373-11.708-2.373
				c-1.042,0-1.663,0.809-2.19,1.403c-0.197,0.097-0.358,0.097-0.616,0.097c-0.351,0-0.89-0.358-0.89-0.616
				c0-0.346,0.268-5.018,0.268-8.269v-39.632c0-5.89-0.079-6.521-2.014-7.638l-1.231-0.818c-0.553-0.336-0.605-1.75,0-1.996
				c3.337-0.984,7.916-2.838,11.511-4.245c0.503-0.093,1.047,0.286,1.232,0.717c-0.186,3.528-0.239,8.967-0.239,12.741V199.88z
				 M418.2,220.46c0,3.871,0.519,6.933,1.908,8.782c1.253,1.664,3.347,2.998,5.897,2.998c5.888,0,9.135-5.548,9.135-13.003
				c0-10.287-5.447-15.84-11.686-15.84c-1.746,0-3.599,0.628-4.313,1.144c-0.79,0.523-0.942,1.688-0.942,4.662V220.46z"/>
			<path d="M461.064,224.077c0,6.487,0.362,7.469,3.348,7.914l1.571,0.25c0.628,0.627,0.552,2.212-0.147,2.54
				c-3.262-0.182-6.28-0.262-9.513-0.262c-2.894,0-5.883,0.08-9.223,0.262c-0.717-0.328-0.797-1.913-0.191-2.54l1.579-0.25
				c2.998-0.444,3.358-1.427,3.358-7.914v-12.914c0-3.985,0-5.048-2.217-6.367l-1.041-0.581c-0.28-0.363-0.28-1.601,0.109-2.051
				c4.538-1.304,8.947-3.245,11.402-4.738c0.52,0.086,0.964,0.268,1.253,0.716c-0.202,2.888-0.289,7.111-0.289,10.713V224.077z
				 M450.765,181.524c0-3.185,2.322-5.562,5.661-5.562c3.322,0,5.616,2.377,5.616,5.562c0,3.143-2.294,5.528-5.616,5.528
				C453.087,187.053,450.765,184.667,450.765,181.524z"/>
			<path d="M478.624,213.689c-1.629,0-1.815,0.089-1.815,1.157c0,7.908,5.46,14.249,13.264,14.249c3.524,0,6.418-1.165,8.442-4.415
				c0.917-0.272,1.844,0.616,1.94,1.414c-2.992,6.997-9.496,9.655-14.852,9.655c-10.193,0-16.975-7.567-16.975-17.566
				c0-9.918,6.781-19.525,18.543-19.525c6.512,0,13.187,4.221,13.187,11.864c0,0.786-0.108,1.333-0.417,2.015
				c-0.51,0.804-2.569,1.152-6.073,1.152H478.624z M486.756,210.179c2.556,0,3.682-0.272,4.282-0.62
				c0.502-0.357,0.879-1.049,0.879-1.861c0-3.158-2.02-5.7-5.781-5.7c-5.9,0-8.627,5.7-8.627,7.561c0,0.348,0.167,0.62,1.215,0.62
				H486.756z"/>
		</g>
		<path d="M186.23,278.896c0,4.983-4.008,6.581-6.262,7.916c5.122,3.344,7.653,6.359,11.176,11.826
			c2.112-2.875,4.446-7.382,6.375-11.617c1.124-2.535,1.369-3.206-0.465-3.547l-1.933-0.305c-0.6-0.604-0.474-1.595,0.18-1.892
			h3.664c3.394,0,9.662-0.252,11.171-0.398c0.465,0.258,0.655,1.34,0.129,1.886l-3.054,0.651c-3.449,0.734-4.852,2.655-7.112,6.511
			c-1.585,2.669-3.977,6.271-6.898,10.418c-0.388,0.607-0.332,1.216,0.115,1.939c2.806,4.382,5.856,7.14,10.58,7.14
			c1.867,0,3.971-0.813,5.38-1.839c0.672,0.09,1.114,0.756,0.931,1.404c-3.262,3.547-8.044,4.788-11.375,4.788
			c-3.105,0-6.508-0.855-7.756-2.11c-0.935-0.938-2.348-2.991-3.183-4.385c-4.403,4.471-8.645,6.495-13.767,6.495
			c-9.573,0-13.274-6.577-13.417-11.879c0.143-6.91,5.176-10.841,10.171-13.435c-1.009-0.857-4.657-3.503-4.657-8.149
			c0-5.984,4.84-9.992,10.36-9.992C182.498,270.323,186.23,274.331,186.23,278.896z M173.19,290.266
			c-0.328,0-0.985,0.403-1.52,0.793c-2.264,1.613-4.054,5.01-4.054,8.307c0,5.576,4.654,9.484,10.412,9.484
			c2.938,0,5.656-1.174,7.722-3.033c1.001-0.875,1.001-1.271,0.213-2.509c-1.599-2.56-3.465-5.08-5.393-7.204
			C177.447,292.672,173.529,290.266,173.19,290.266z M172.062,277.84c0,2.782,1.591,4.749,4.521,6.906
			c0.381,0.278,0.92,0.614,1.073,0.614c0.196,0,0.519-0.28,0.669-0.336c1.239-1.438,2.183-3.611,2.183-6.4
			c0-3.433-1.679-5.886-4.202-5.886C174.001,272.738,172.062,274.78,172.062,277.84z"/>
		<path d="M259.224,254.829c5.639,0,10.558-0.072,12.382-0.266c0,1.94,0,8.539,0.172,12.667c-0.34,0.703-1.938,0.884-2.798,0.348
			c-0.89-5.103-2.278-7.646-5.612-8.504c-2.384-0.635-4.581-0.74-7.392-0.74h-4.489c-3.673,0-3.673,0.183-3.673,5.1v15.766
			c0,2.173,0.068,2.376,2.089,2.376h5.211c7.632,0,9.045-0.203,9.815-3.89l0.725-2.986c0.542-0.592,2.202-0.592,2.623,0.092
			c-0.082,2.288-0.26,5.538-0.26,8.774c0,3.29,0.178,6.44,0.26,9.165c-0.421,0.698-2.082,0.698-2.623,0.076l-0.725-3.439
			c-0.77-3.665-2.183-3.838-9.815-3.838h-5.211c-2.021,0-2.089,0.173-2.089,2.365v12.31c0,9.32,0.785,9.593,4.91,9.934l3.691,0.435
			c0.629,0.627,0.536,2.199-0.18,2.556c-5.622-0.18-9.59-0.273-13.445-0.273c-3.864,0-7.83,0.094-11.869,0.273
			c-0.7-0.356-0.779-1.929-0.197-2.556l1.948-0.247c4.142-0.528,4.936-0.801,4.936-10.121v-32.699c0-9.332-0.794-9.582-4.936-10.234
			l-1.144-0.136c-0.607-0.631-0.525-2.213,0.181-2.571c3.118,0.193,7.049,0.266,10.903,0.266H259.224z"/>
		<path d="M287.433,302.406c0,6.47,0.37,7.47,3.341,7.919l1.581,0.247c0.647,0.627,0.53,2.199-0.175,2.556
			c-3.225-0.18-6.231-0.273-9.484-0.273c-2.878,0-5.897,0.094-9.212,0.273c-0.725-0.356-0.797-1.929-0.18-2.556l1.572-0.247
			c2.999-0.449,3.331-1.449,3.331-7.919v-12.897c0-3.979,0-5.041-2.171-6.365l-1.063-0.611c-0.256-0.355-0.256-1.606,0.08-2.037
			c4.573-1.296,8.97-3.229,11.429-4.725c0.516,0.077,0.952,0.247,1.229,0.72c-0.183,2.888-0.277,7.075-0.277,10.706V302.406z
			 M277.166,259.861c0-3.178,2.295-5.539,5.614-5.539c3.352,0,5.642,2.361,5.642,5.539c0,3.149-2.29,5.534-5.642,5.534
			C279.462,265.396,277.166,263.011,277.166,259.861z"/>
		<path d="M310.555,282.1c-1.602,0-1.639,0.171-1.639,2.98v13.559c0,5.515,0.756,10.429,6.385,10.429
			c1.77,0,2.826-0.596,4.226-1.578c0.789,0.085,1.311,0.791,1.152,1.773c-1.784,2.446-5.8,4.802-11.172,4.802
			c-8.355,0-9.858-4.802-9.858-10.96v-17.853c0-3.075-0.161-3.152-1.577-3.152h-3.074c-0.875-0.433-1.048-1.875-0.252-2.384
			c2.977-1.156,5.018-2.305,6.945-3.698c1.69-1.227,3.618-3.075,4.839-5.439c0.784-0.517,1.996-0.26,2.424,0.398v5.305
			c0,1.404,0,1.655,1.699,1.655h8.683c0.543,0.276,0.747,0.989,0.747,1.867c-0.091,1.063-0.479,1.863-1.188,2.296H310.555z"/>
		<path d="M352.394,278.213c1.138,1.07,1.773,2.456,1.773,4.495c0,2.808-1.482,4.129-2.207,4.129c-0.604,0-1.042-0.172-1.688-0.954
			c-1.92-2.571-4.561-5.393-7.97-5.393c-5.024,0-10.215,4.92-10.215,13.197c0,7.109,4.576,13.873,12.578,13.873
			c5.722,0,7.729-2.094,9.502-4.625c0.78-0.095,1.747,0.503,1.837,1.583c-3.168,7.08-9.929,9.542-15.448,9.542
			c-4.699,0-9.266-1.833-12.233-4.711c-3.077-3.014-5.103-7.568-5.103-12.66c0-10.301,7.476-19.694,21.617-19.694
			C347.404,276.995,349.953,277.317,352.394,278.213z"/>
		<path d="M373.408,279.709c0,1.052,0.199,1.479,0.813,1.479c3.052-2.263,6.844-4.193,11.24-4.193
			c7.544,0,11.257,4.829,11.257,12.303v13.108c0,6.464,0.331,7.47,3.33,7.908l2.02,0.258c0.769,0.618,0.697,2.199-0.173,2.556
			c-3.682-0.18-6.681-0.273-9.943-0.273c-2.898,0-5.867,0.094-8.949,0.273c-0.709-0.356-0.786-1.938-0.186-2.556l1.334-0.18
			c2.96-0.517,3.314-1.522,3.314-7.986v-12.4c0-4.223-1.845-7.739-7.014-7.739c-2.904,0-4.928,1.396-5.988,2.556
			c-0.967,1.061-1.055,2.368-1.055,5.794v11.79c0,6.464,0.348,7.47,3.347,7.986l1.313,0.18c0.627,0.618,0.527,2.199-0.189,2.556
			c-3.07-0.18-6.062-0.273-9.295-0.273c-2.81,0-5.831,0.094-9.485,0.273c-0.719-0.356-0.809-1.938-0.177-2.556l1.912-0.258
			c2.993-0.438,3.348-1.444,3.348-7.908v-37.712c0-5.896-0.083-6.521-2.032-7.664l-1.199-0.776c-0.523-0.364-0.621-1.766,0-2.011
			c3.432-0.997,7.874-2.827,11.482-4.239c0.53-0.082,1.063,0.279,1.231,0.694c-0.168,3.545-0.256,8.959-0.256,12.735V279.709z"/>
	</g>
	<g>
		<path d="M221.163,162.928v-16.466h10.913v2.646h-7.761v3.921h5.636v2.652h-5.636v4.603h8.006v2.644H221.163z"/>
		<path d="M245.482,150.857c-0.472-1.283-1.453-2.159-2.936-2.159c-1.371,0-2.346,0.55-2.346,1.818c0,2.842,8.48,2.251,8.48,7.59
			c0,3.368-2.117,5.05-5.776,5.05c-2.682,0-5.216-1.509-6.141-3.899l2.586-1.139c0.754,1.553,1.738,2.574,3.579,2.574
			c1.579,0,2.784-0.587,2.784-2.181c0-3.237-8.474-2.596-8.474-7.654c0-2.955,2.454-4.613,5.309-4.613
			c2.652,0,4.826,1.319,5.801,3.714L245.482,150.857z"/>
		<path d="M264.84,146.442v2.641h-4.316v13.845h-3.152v-13.845h-4.308v-2.641H264.84z"/>
		<path d="M267.831,162.928v-3.238h3.142v3.238H267.831z"/>
		<path d="M288.666,162.928v-2.275h2.556v-11.362h-2.927v-1.911c1.497-0.064,2.831-0.405,3.58-1.136h2.303v14.409h2.541v2.275
			H288.666z"/>
		<path d="M311.776,154.174c1.996,0.866,3.298,2.24,3.298,4.519c0,2.691-2.625,4.464-6.123,4.464c-3.481,0-6.113-1.772-6.113-4.464
			c0-2.279,1.315-3.653,3.308-4.519c-1.611-0.856-2.674-1.879-2.674-3.833c0-2.512,2.136-4.097,5.479-4.097
			c3.353,0,5.513,1.585,5.513,4.097C314.463,152.294,313.387,153.318,311.776,154.174z M312.103,158.486
			c0-1.487-2.633-2.991-3.359-2.991c-0.722,0-2.934,1.324-2.934,2.991c0,1.442,1.082,2.397,3.141,2.397
			C311.031,160.884,312.103,159.929,312.103,158.486z M306.427,150.387c0,1.506,1.679,2.51,2.523,2.51
			c0.86,0,2.547-1.323,2.547-2.51c0-1.096-0.69-1.865-2.554-1.865C307.122,148.522,306.427,149.291,306.427,150.387z"/>
		<path d="M321.379,159.564c0.675,0.59,1.596,1.128,2.779,1.128c2.243,0,4.063-2.223,4.107-5.011
			c-1.077,0.934-2.199,1.318-3.709,1.318c-2.899,0-5.037-2.182-5.06-5.336c0.022-3.435,2.515-5.419,5.831-5.419
			c3.431,0,5.912,2.454,5.912,7.478c0,5.738-2.614,9.434-7.082,9.434c-1.584,0-2.823-0.458-4.063-1.235L321.379,159.564z
			 M325.308,154.546c1.324,0,2.344-0.632,2.958-1.879c0-2.775-1.567-3.969-3.15-3.969c-1.591,0-2.642,1.147-2.616,2.854
			C322.474,153.383,323.457,154.546,325.308,154.546z"/>
		<path d="M336.648,162.928v-2.711c0.507-2.574,8.125-6.219,8.125-9.23c0-1.439-0.941-2.289-2.458-2.289
			c-1.612,0-2.604,1.096-2.956,2.611l-2.651-0.569c0.341-2.527,2.715-4.495,5.646-4.495c2.913,0,5.361,1.658,5.361,4.742
			c0,4.015-3.681,5.662-7.805,9.395h7.805v2.547H336.648z"/>
	</g>
	<g>
		<path d="M203.317,359.604v-16.457h3.279l6.473,11.23h0.053v-11.23h2.96v16.457h-3.042l-6.728-11.703h-0.034v11.703H203.317z"/>
		<path d="M226.975,359.604v-16.457h10.889v2.635h-7.748v3.912h5.631v2.678h-5.631v4.584h8.001v2.648H226.975z"/>
		<path d="M246.574,343.147h2.929l2.082,11.109h0.048l2.342-11.109h3.238l2.159,11.109h0.052l2.269-11.109h2.94l-3.429,16.457
			h-3.189l-2.395-11.703h-0.046l-2.375,11.703h-3.181L246.574,343.147z"/>
		<path d="M292.643,349.659l2.827-6.512h3.304l-4.555,9.903v6.554h-3.152v-6.554l-4.521-9.903h3.279L292.643,349.659z"/>
		<path d="M313.714,359.833c-4.505,0-6.904-3.065-6.904-8.446c0-5.383,2.399-8.448,6.904-8.448c4.479,0,6.897,3.065,6.897,8.448
			C320.612,356.768,318.194,359.833,313.714,359.833z M313.714,345.582c-2.587,0-3.762,1.954-3.762,5.805
			c-0.039,3.851,1.161,5.78,3.762,5.78c2.554,0,3.773-1.93,3.773-5.78S316.268,345.582,313.714,345.582z"/>
		<path d="M330.262,359.604v-16.457h6.541c3.746,0,5.228,2.17,5.262,4.895c0.02,2.026-1.006,3.666-3.014,4.232l3.628,7.33h-3.493
			l-3.101-6.688h-2.698v6.688H330.262z M333.387,350.361h2.324c2.472,0,3.18-0.796,3.18-2.319c0-1.575-0.904-2.333-2.646-2.333
			h-2.858V350.361z"/>
		<path d="M352.572,359.604v-16.457h3.141v7.376h-0.041l5.539-7.376h3.622l-4.687,6.169l5.459,10.288h-3.508l-4.063-7.798
			l-2.321,2.857v4.94H352.572z"/>
	</g>
</g>
</svg>
